<svg width="56" height="61" viewBox="0 0 56 61" fill="none" xmlns="http://www.w3.org/2000/svg">
<path d="M39.7689 49.9907C40.2778 50.1617 40.8606 49.872 41.0316 49.363C41.2025 48.8541 40.9128 48.2713 40.4039 48.1003C23.7782 42.4347 28.0078 27.9159 28.5451 26.3163C28.6184 26.0982 28.619 25.8556 28.5224 25.6614C28.4985 25.4915 28.4503 25.3944 28.3293 25.2728C28.0873 25.0297 27.7237 24.9076 27.3841 24.9553C27.0444 25.0031 26.7041 25.2933 26.6064 25.5842L26.582 25.6569C26.0203 27.3292 20.6517 41.3846 4.00158 35.7917C3.49262 35.6207 2.90983 35.9104 2.73887 36.4194C2.56791 36.9283 2.85762 37.5111 3.36658 37.6821C20.0167 43.275 15.787 57.7938 15.2497 59.3934C15.1276 59.7569 15.248 60.121 15.4656 60.4369C15.7076 60.68 16.0711 60.8021 16.4352 60.6817C16.7749 60.6339 17.0424 60.3192 17.2128 60.0528C17.7257 58.526 23.1187 44.3979 39.7689 49.9907ZM10.8095 39.1303C18.425 39.342 23.1401 35.1811 25.7438 31.5246C25.6848 36.0359 26.9318 42.1995 33.0581 46.6038C25.4426 46.3921 20.7275 50.5531 18.1238 54.2095C18.1827 49.6983 16.9113 43.6074 10.8095 39.1303ZM32.9576 27.1512C42.0461 30.2041 39.7964 38.1059 39.4789 39.0511L39.4544 39.1239C39.2835 39.6328 39.5732 40.2156 40.0821 40.3866C40.5911 40.5575 41.1739 40.2678 41.3448 39.7588C41.6379 38.8864 44.5664 31.1316 53.7277 34.2089C54.2366 34.3798 54.8194 34.0901 54.9904 33.5812C55.1613 33.0722 54.8716 32.4894 54.3627 32.3185C45.2742 29.2656 47.5239 21.3637 47.8414 20.4185L47.8658 20.3458C47.9641 19.8124 47.7226 19.3268 47.2137 19.1558C46.7047 18.9848 46.1219 19.2746 45.951 19.7835C45.6579 20.656 42.7294 28.4108 33.5682 25.3335C33.0592 25.1625 32.4764 25.4522 32.3055 25.9612C32.1589 26.3974 32.4486 26.9802 32.9576 27.1512ZM45.4552 24.3908C45.6439 26.7197 46.5596 29.2928 48.859 31.3598C45.7053 31.5951 43.4702 33.1907 41.9383 34.8607C41.7496 32.5318 40.8339 29.9587 38.5345 27.8917C41.7609 27.6809 43.996 26.0853 45.4552 24.3908ZM11.0335 26.1788L11.1067 25.9607C11.4975 24.7973 15.2797 14.9829 26.8403 18.8661C27.3492 19.0371 27.932 18.7474 28.103 18.2384C28.2739 17.7295 27.9842 17.1467 27.4753 16.9757C15.842 13.068 18.8244 2.98492 19.2152 1.82159L19.2885 1.60347C19.3623 1.14279 19.0482 0.632715 18.6119 0.486177C18.103 0.315215 17.5202 0.604925 17.3492 1.11388C16.9584 2.27721 13.2489 12.1161 1.61566 8.2084C1.1067 8.03744 0.523911 8.32715 0.352949 8.83611C0.181988 9.34507 0.471701 9.92785 0.980658 10.0988C12.6139 14.0065 9.63152 24.0896 9.24075 25.2529C9.06979 25.7619 9.3595 26.3447 9.86845 26.5156C10.353 26.7593 10.8142 26.5906 11.0335 26.1788ZM7.1875 11.1319C11.772 10.9727 14.8336 8.60281 16.6581 6.30282C16.7723 9.33494 17.7341 12.9754 21.2929 15.8699C16.7083 16.0291 13.6467 18.399 11.8223 20.699C11.7563 17.764 10.7463 14.0264 7.1875 11.1319Z" fill="#1D1D1F"/>
</svg>
