<svg width="34" height="35" viewBox="0 0 34 35" fill="none" xmlns="http://www.w3.org/2000/svg">
<path d="M23.5538 5.78706C23.5538 5.47628 23.2875 5.2099 22.9767 5.2099C22.6659 5.2099 22.3995 5.47628 22.3995 5.78706C22.3551 15.9539 13.609 16.309 12.6323 16.309C12.4991 16.309 12.3659 16.3534 12.2771 16.4422C12.1883 16.4866 12.1439 16.531 12.0995 16.6198C12.0107 16.7974 12.0107 17.0194 12.0995 17.197C12.1883 17.3746 12.4103 17.5078 12.5879 17.5078H12.6323C13.6534 17.5078 22.3551 17.8629 22.3551 28.0297C22.3551 28.3405 22.6215 28.6069 22.9323 28.6069C23.2431 28.6069 23.5094 28.3405 23.5094 28.0297C23.5094 17.8629 32.2556 17.5078 33.2323 17.5078C33.4543 17.5078 33.6319 17.3746 33.7651 17.197C33.8538 17.0194 33.8538 16.7974 33.7207 16.6198C33.6319 16.4422 33.4099 16.3534 33.2323 16.309C32.3 16.309 23.5538 15.9539 23.5538 5.78706ZM22.9323 23.6789C21.6448 19.4612 18.4926 17.6409 16.0064 16.8862C18.4926 16.0871 21.6448 14.2668 22.9323 10.0935C24.2198 14.3112 27.3719 16.1315 29.8582 16.8862C27.3719 17.6853 24.2642 19.5056 22.9323 23.6789ZM12.2771 13.734C12.2771 8.18447 17.0275 7.96249 17.6047 7.96249H17.6491C17.9599 7.96249 18.2263 7.69611 18.2263 7.38534C18.2263 7.07456 17.9599 6.80818 17.6491 6.80818C17.1163 6.80818 12.3215 6.6306 12.3215 1.03663C12.3215 0.725852 12.0551 0.459473 11.7444 0.459473C11.4336 0.459473 11.1672 0.725852 11.1672 1.03663C11.1672 6.5862 6.41677 6.80818 5.83961 6.80818H5.79521C5.48444 6.85258 5.26245 7.07456 5.26245 7.38534C5.26245 7.69611 5.52883 7.96249 5.83961 7.96249C6.37237 7.96249 11.1672 8.14008 11.1672 13.734C11.1672 14.0448 11.4336 14.3112 11.7444 14.3112C12.0107 14.3112 12.2771 14.0448 12.2771 13.734ZM8.45901 7.38534C9.70211 6.85258 10.9452 5.87585 11.6556 4.23318C12.3659 5.92025 13.6534 6.85258 14.8521 7.38534C13.609 7.9181 12.3659 8.89482 11.6556 10.5375C10.9452 8.80603 9.65772 7.8737 8.45901 7.38534ZM15.7844 25.9431H15.6513C14.9409 25.9431 8.85858 25.6767 8.85858 18.6177C8.85858 18.3069 8.5922 18.0405 8.28142 18.0405C7.97065 18.0405 7.70427 18.3069 7.70427 18.6177C7.70427 25.7211 1.62194 25.9431 0.911591 25.9431H0.778401C0.512022 25.9875 0.290039 26.2539 0.290039 26.5203C0.290039 26.831 0.556418 27.0974 0.867194 27.0974C1.57754 27.0974 7.65987 27.3194 7.65987 34.4228C7.65987 34.7336 7.92625 35 8.23703 35C8.5478 35 8.81418 34.7336 8.81418 34.4228C8.81418 27.3194 14.8965 27.0974 15.6069 27.0974C15.9176 27.0974 16.184 26.831 16.184 26.5203C16.2284 26.2095 16.0508 25.9875 15.7844 25.9431ZM8.23703 30.8267C7.3047 28.3405 5.44004 27.0974 3.84176 26.5203C5.48444 25.8987 7.3047 24.7 8.23703 22.2138C9.16935 24.7 11.034 25.9431 12.6323 26.5203C11.034 27.0974 9.16935 28.3405 8.23703 30.8267Z" fill="#1D1D1F"/>
</svg>
